<svg xmlns="http://www.w3.org/2000/svg" width="2167.448" height="233" viewBox="0 0 2167.448 233"><defs><style>.a{fill:#d4d3cf;}</style></defs><g transform="translate(-176.167 763.13)"><path class="a" d="M2342.266-530.887q-1080.561,0-2161.121.1c-4.06,0-4.988-.907-4.978-4.95q.228-89.741.1-179.483a29.962,29.962,0,0,1,8.426-.474c6.611.249,12.9,2.51,19.677,2.182,3.3-.16,6.208-3.405,8.946-1.7,8.392,5.213,16.684,4.232,25.149.723a3.612,3.612,0,0,1,3.52.451c6.684,3.818,14.217,1.511,21.314,2.711,6.533,1.105,13.645-1.131,19.461,3.834a1.5,1.5,0,0,0,2.371-.146c1.494-2.769,3.3-1.339,4.983-.474,8.536,4.384,18.183,5.091,27.1,8.2a6.076,6.076,0,0,0,5.174-.2,4.965,4.965,0,0,1,4.152-.432c14.3,5.074,29.138,6.269,44.156,5.756,3.49-.119,6.989-1.06,9.214-4.283l-.048.056c4.648-.868,9.224-1.193,13.555,1.346,1.09.638,2.553,1.052,3.63.283,3.387-2.419,6.765-1.156,10.163-.259a7.812,7.812,0,0,0,3.714,0c9.367-1.941,18.92-3.194,28.353-1.779,6.483.972,12.965,2.356,19.454,3.516,4.824.863,9.808,4.076,14.211-1.128.411-.486,1.667-.353,2.529-.351,2.674.005,4.934-.687,6.443-3.117.89-1.433,2.4-2.661,3.938-2.586,5.051.244,9.355-2.359,14.091-3.231a11.177,11.177,0,0,1,5.341.22c10.364,3.1,20.722,6.21,31.711,3.03a4.253,4.253,0,0,1,2.579.429c7.622,3.293,15.454,4.392,23.578,2.264a8.343,8.343,0,0,1,4.229.08c6.68,1.582,12.975,1.386,19.291-2.2,6.581-3.74,13.132-9.01,21.677-5.191.824.255,2.029.249,2.411.805,2.281,3.317,8.471,5.209,11.551,3.061,3.679-2.565,5.454-1.088,5.2,2.618-.207,3.067,1.143,3.092,3.336,3.257,3.732.28,6.113-3.46,10.069-3.032,1.155.125-.865-3.354,1.091-4.606a21.9,21.9,0,0,0,11.852-2.717,18.387,18.387,0,0,1,11.948-1.8c4.038.706,3.63,4.456,5.428,6.664,1.129,1.384,2.275,2.759,3.482,4.076,3.85,4.2,7.628,8.4,11.124,12.956,2.9,3.772,7.267,8.613,13.248,7.649,6.429-1.037,12.223-.928,18.213,2.119a18.88,18.88,0,0,0,12.43,1.394c1.743-.352,4.413-2.636,6.185-.173,3.5,4.864,8.3,3.9,13,3.194,2.967-.449,5.8-1.916,8.914-.922.246,6.694,1.341,8.26,7.6,8.419,5.4.137,10.824-.587,16.237-.931,3.548,2.677,6.939,5.8,12,4.155a13.433,13.433,0,0,0,9.3-1.721c3.732-2.056,6.858-1.746,9.83,1.938,3.74,4.636,9.512,7.259,14.634,9.324,10.51,4.238,21.912,4.855,33.259,2.787,2.7-.492,5.225.219,7.887.683,5.4.943,8.715,5.548,13.756,6.878.2.494.314,1.354.621,1.428,6.045,1.481,10.965,6.557,17.859,5.441,1.567-.254,2.577.94,2.5,3.034-5.639-.976-5.254,1.108-2.284,4.466a11.515,11.515,0,0,1,1.361,2.312c2.452,4.637,6.56,4.342,10.685,3.325,3.809-.941,3.84-4.24,3.968-7.331,3.254-3.8,6.829-4.66,10.87-1.16,2.927,4.923,7.133,7.3,12.978,6.607a4.726,4.726,0,0,1,3.886,1.439c5.165,4.736,10.126,5.036,16.46,1.189,4.313-2.619,11.029-.825,13.917,3.772.514.817,1.051.559,1.784.5a128.182,128.182,0,0,0,22.893-4.093c3.229-.85,5.848,2.546,9.345.727,4.246-2.208,8.7-1.3,13.1.35,6.434,2.416,12.958,6.184,19.627.469,5.372-4.6,10.949-3.786,16.2-.114,4.471,3.124,10.234-1.229,14.358,2.9.08.081.75-.187.9-.437,2.384-4.083,3.677-1.294,4.452.9,1.3,3.678,3.969,5.648,7.14,7.62,3.682,2.29,7.881,2.288,11.71,3.694,3.405,1.252,6.287.818,8.824-1.772.9,4.016,4.108,5.315,7.538,6.357.183,2.566.826,4.723,3.229,6.358,4.722,3.211,10.418-2.1,14.934,1.929.063.056.442-.069.475-.172,1.563-4.923,5.541-2.034,8.445-2.6,6.609,5.2,13.233,9.955,22.558,7.5,8.543-2.249,17.327-3.408,24.027-10.262a8.71,8.71,0,0,1,10.354-1.614c5.363,2.54,6.213,2.256,10.788-.959a3.32,3.32,0,0,1,1.406-.764c6.7-.518,12.7-4.588,19.652-3.779,1.269,1.153,2.576,3.351,4.389,2.034,5.327-3.869,11.345-4.908,17.654-5.261,1.143-.064,2.335-.709,2.449-1.8.594-5.654,5.379-4.4,8.686-5.092,4.042-.845,1.325,4.25,4.234,5.224a31.242,31.242,0,0,0,1.524-4.444,11.08,11.08,0,0,1,2.207-4.238c1.387-.766,2.766-2.158,4.164-2.177,3.871-.055,5.783-2.483,7.906-4.917-1.349-1.462-3.6-.068-4.6-2.625,2.406.235,4.75,1.322,6.722-.237,2.664-2.106,5.6-1.869,8.613-1.109.143,1.708-.372,3.808,2.223,4.167,3.166.438,4.491-2.47,5.591-4.184,3.149-4.906,6.025-5.192,11.155-2.432,2.7,1.452,4.352,2.765,5.629,5.383.864,1.771,2.719,1.408,4.114.139a8.677,8.677,0,0,0,2.692-5.12c4.8.491,8.874,1.882,14.5-.355,5.29-2.1,13.346.754,19.335,3.9,3.143,1.653,5.93,2.989,9.48,2.885a51.67,51.67,0,0,1,10.714.813c2.3.413,4.918,1.393,7.306.162,4.284-2.206,8.54-3.03,13.061-.637a18.86,18.86,0,0,0,4.548,1.6,2.12,2.12,0,0,0,2.629-1.367c.489-1.646-.954-1.545-1.948-1.737-.859-.166-1.834-.138-1.884-1.512,1.322-1.412,2.955-2.083,4.759-.988,3.286,2,5.12.862,6.736-2.3,1.294-2.534,3.461-3.6,6.218-1.569,1.155.853,1.823,1.129,2.628-.829,2.074-5.045,8.144-7,11.786-3.233,4.214,4.362,9.214,6.568,14.609,8.49.475,4.613,5.615,7.723,7.314,6.183,3.034-2.749,9.363-4.158,7.98-10.5q.522-.075,1.045-.153c5.343.528,9.449-5.13,15.24-2.97.915.341,1.9-1.371,2.047-2.726,5.807,1.2,9.057-3.968,13.756-5.636,4.419-1.57,11.029-2.067,15,.73,5.212,3.674,11.334,3.422,16.443-.488,2.764-2.114,5.245-4.8,9.033-5.18-2.4,4.678,1.873,6.681,4.191,8.892,2.151,2.05,4.118-.272,5.466-2.276l7.561-.09,3.228.047c2.272,2.8,4.86,5.412,8.363,2.11,1.849-1.744,1.92.44,2.839.581,2.341.357,4.724,3.394,6.806,1.3,2.346-2.356,5.117-2.185,7.766-2.943,5.8-1.661,12.38-.079,17.584-4.18,5.025-3.958,10.834-5.154,17.1-6.045,6.374-.907,13.562-.407,18.513-6.093a1.694,1.694,0,0,1,2.465.007c2.68,3.035,6.279,2.072,9.592,2.371l7.577,2.117c3.422,3.963,7.023,7.574,13,6.435.164.644.185,1.408,1.115,1.444a.482.482,0,0,0,.335-.333c-.036-.927-.8-.946-1.45-1.109v-3.262l4.317,1.091c3.969,1.406,6.189,4.518,8.044,8.04.9,1.7,2.166,2.927,4.334,1.92,1.154-.536,2.927-1.942,2.165-2.52-4.045-3.072,1.776-3.829,1.254-6.1-.236-1.022,1.53-1.321,1.889-.543,2.241,4.868,8.63,3.3,11.5,7.752,1.479,2.293,5.132,1.737,7.576-.738,2.292-2.321,2.862-4.451.075-6.727a4.809,4.809,0,0,0,4.333-4.314c9.128.217,16.353-6.019,25.059-7.334,2.483-.376,4.45-2.263,7.509-.742a10.512,10.512,0,0,0,7.69.117c5.057-2.015,9.841-4.486,15.415-5.176,3.038-.377,7.059-1.2,8.574-3.294,1.842-2.548,3.568-3.347,6.085-2.964,4.027.613,3.767-1.483,2.075-4.839,5.654,2.645,11.444-.327,15.651,3.987a1.462,1.462,0,0,0,2.305-.465c.678-4.253,3.932-3.648,6.563-3.28a13.252,13.252,0,0,0,11.935-5.213c5.2-7.447,15.126-8.619,19.672-16.337a1.626,1.626,0,0,1,1.441-.437c5.432,1.493,8.682-5.126,14.062-3.714-.295,1.917,2.7,1.862,2.328,3.742-.548,2.793.009,3.936,2.022,3.225a44.544,44.544,0,0,1,17.859-2.114c2.232.134,4.83-.3,6.058-3.428,1.25-3.188,9.789-5.953,12.689-4.13,2.194,1.378,3.324.752,4.405-.84,1.914-2.814,4.76-3.6,7.855-4.009,3.932-2.447,8.271-2.565,12.7-2.2,4.9,4.112,6.675-.1,9-3.964,1.5,4.351,3.769,4.036,6.583,1.877a15.443,15.443,0,0,1,8.79-3.589c2.267-.114,4.136-1.358,3.988-4.145l2.262.07c.006,1.558-.417,3.548,1.816,3.754,1.432.132,1.1-1.492,1.277-2.472,5.412,2.889,9.258-1.507,13.336-3.342,7.231-3.252,14.017-7.526,19.349-13.624,1.321-1.51,2.155-.373,3.142.351,5.033,3.693,5.024,3.687,6.692-2.6a5.355,5.355,0,0,1,.856-1.354c.3.2.58.521.9.574,4.822.781,6.187,7.125,11.481,7.089,7.006-.048,14.124.284,20.718,2.3,6.235,1.91,11.816-2.3,17.772-.435,1.29.4,2.16-1.086,3.208-1.737s2.568-2.025,3.175-1.714c6.208,3.174,11.459-1.529,17.2-2.019,6.154-.523,12.572.74,18.507-1.923,7.235,5.69,7.276,5.714,12.117-2.364.762-1.271,1.6-1.955,2.957-1.608,4.574,1.168,8.658-1.735,13.154-1.452,2.454.155,3.252-1.773,3.387-3.944,5.891-2.361,12.045-2.1,18.01-.95,7.576,1.465,14.771,1.708,21.475-2.707,5.773-3.8,11.781-5.79,18.63-2.944a14.065,14.065,0,0,0,5.227.728c5.368.1,11.107-.533,15.791,2.664,3.078,2.1,6.174,1.919,8.531.3,3.515-2.411,5.592-1.109,7.87,1.317,3.92,4.172,9.629,6.364,14.392,7.818,5.666,1.731,10.138,3.1,13.992,7.99,2.334,2.965,8.075.4,11.5,3.31.06.051.55-.373.819-.6,3.536-2.958,9.86-3.066,13.621-.229,7.435,5.605,13.332,6.455,19.351.314,6.073-6.2,12.492-3.682,18.316-2.126,3.717.995,6.719,1.291,10.174.32,4.346-1.22,8.633-2.648,12.782.854,2.058,1.736,4.055.428,5.741-1.133.1,2.509.284,5.019.285,7.528Q2342.276-627.883,2342.266-530.887Zm-1145.44-63.372c-.546-2.667-2.1-3.551-4.3-3.226-.359.053-.964.794-.89,1.056C1192.449-593.6,1195.336-595.61,1196.826-594.259Z" transform="translate(0 0.657)"/><path class="a" d="M2174.647-734.168l1.38-.063q0,98.634-.065,197.269c0,1.4,1.221,3.342-1.018,4.312q0-97-.013-193.991C2174.931-729.149,2174.747-731.659,2174.647-734.168Z" transform="translate(167.321 2.42)"/><path class="a" d="M177.351-763.073,176.267-762Q175.952-763.387,177.351-763.073Z" transform="translate(0.004 0)"/><path class="a" d="M2176-762l-1.082-1.077Q2176.32-763.386,2176-762Z" transform="translate(167.344 0)"/><path class="a" d="M1819.02-723c1.446-7.214,5.933-9.928,13.049-9.931,5.838,0,11.995.09,16.661-5.443,3.747-4.444,9.561-3.688,14.895-2.857a5.355,5.355,0,0,0-.856,1.354c-1.668,6.286-1.659,6.292-6.692,2.6-.987-.724-1.821-1.861-3.142-.351-5.332,6.1-12.118,10.371-19.349,13.624-4.078,1.835-7.924,6.231-13.336,3.342l.011.012Z" transform="translate(137.546 1.781)"/><path class="a" d="M827.79-650.4c7.118-.807,13.868,1.64,20.778,2.553,2.219.293,5.277.959,6.563,3.8.771,1.7,2.376,1.966,4.055,1.931,3.809-.559,1.95,3.117,3.31,4.387-.128,3.092-.158,6.391-3.968,7.331-4.126,1.018-8.233,1.312-10.685-3.325a11.515,11.515,0,0,0-1.361-2.312c-2.969-3.358-3.354-5.443,2.284-4.466.08-2.095-.93-3.288-2.5-3.034-6.894,1.115-11.814-3.96-17.859-5.441C828.1-649.043,827.993-649.9,827.79-650.4Z" transform="translate(54.557 9.425)"/><path class="a" d="M1728.223-704.708a3.181,3.181,0,0,1,4.375-.137c.3.56.5,1.469.927,1.6.845.254,1.007-.631,1.165-1.291,2.3.192,4.786-.085,6.862.7,2.3.871,3.091.521,2.857-1.761-.5-4.886,2.84-3.945,4.45-2.2,4.739,5.148,7.274,1.489,10.181-1.805,4.934-5.6,16.657-6.974,22.4-2.662-3.093.405-5.939,1.193-7.853,4.008-1.082,1.592-2.212,2.218-4.405.84-2.9-1.823-11.44.942-12.689,4.13-1.228,3.132-3.826,3.562-6.058,3.428a44.544,44.544,0,0,0-17.859,2.114c-2.014.711-2.571-.432-2.022-3.225C1730.921-702.846,1727.928-702.79,1728.223-704.708Z" transform="translate(129.943 4.047)"/><path class="a" d="M1592-658.38q.538-.029,1.076-.027a3.935,3.935,0,0,0,1.083,3.222c2.787,2.276,2.217,4.405-.075,6.727-2.444,2.475-6.1,3.031-7.576.738-2.87-4.448-9.258-2.884-11.5-7.752-.359-.778-2.125-.479-1.889.543.522,2.269-5.3,3.026-1.254,6.1.762.578-1.011,1.983-2.165,2.52-2.167,1.007-3.438-.217-4.334-1.92-1.855-3.522-4.076-6.635-8.044-8.04q.013-1.075.026-2.15a10.691,10.691,0,0,1,7.568,2.062c1.631,1.152,3.767,1.293,4.582-.737.75-1.868-1.333-2.086-2.676-2.442a2.686,2.686,0,0,1-1.918-1.692,14.239,14.239,0,0,1,9.963,3.267c1.756,1.391,3.61,3.121,6.26,2.727C1585.476-653.8,1589.239-654.376,1592-658.38Z" transform="translate(115.636 8.53)"/><path class="a" d="M1789.041-713.48c2.24-5.463,3.953-11.282,11.673-11.5,1.375-.038,2.541-.319,3.884.292,2.007.914,4.771,1.481,6.114.05,3.387-3.609,4.92-1.284,6.693,1.338.148,2.784-1.721,4.028-3.988,4.142a15.443,15.443,0,0,0-8.79,3.589c-2.813,2.159-5.087,2.474-6.583-1.877C1795.716-713.58,1793.942-709.368,1789.041-713.48Z" transform="translate(135.036 3.068)"/><path class="a" d="M1945.959-738.36c1.122-5.975,6.871-4.578,10.494-5.838,3.076-1.071,4.3-1.672,1.665-6.386,7.393,5.006,13.569,1.861,19.456,2.854-.133,2.173-.932,4.1-3.385,3.946-4.5-.283-8.58,2.62-13.154,1.452-1.356-.347-2.2.337-2.957,1.608C1953.235-732.645,1953.194-732.67,1945.959-738.36Z" transform="translate(148.174 1.05)"/><path class="a" d="M1817.3-723.481a1.483,1.483,0,0,1,.607,0l2.5,1.293-.011-.012c-.174.98.156,2.6-1.277,2.472C1816.886-719.932,1817.31-721.922,1817.3-723.481Z" transform="translate(137.4 3.317)"/><path class="a" d="M1447.379-650.467c.287-1.18.427-2.975,1.672-2.958,1.266.018,1.354,1.8,1.557,3Z" transform="translate(106.431 9.185)"/><path class="a" d="M1553.339-654.654c.647.162,1.414.182,1.45,1.109a.482.482,0,0,1-.335.333c-.93-.036-.952-.8-1.115-1.444Z" transform="translate(115.302 9.082)"/><path class="a" d="M1558.432-660.411q1.066-1.057,2.135-2.111,2.167.7,4.335,1.394a2.682,2.682,0,0,0,1.918,1.7c1.343.355,3.426.573,2.676,2.442-.815,2.03-2.951,1.889-4.582.737a10.691,10.691,0,0,0-7.568-2.062h0Z" transform="translate(115.638 8.423)"/><path class="a" d="M1734.35-705.305c-.158.66-.32,1.544-1.165,1.291-.431-.129-.625-1.038-.927-1.6C1732.955-705.512,1733.653-705.408,1734.35-705.305Z" transform="translate(130.282 4.816)"/><path class="a" d="M1820.358-722.108l-2.5-1.293c.416-.351.838-.7,1.256-1.053Z" transform="translate(137.449 3.238)"/><path class="a" d="M925.685-629.11l-.526-.693c.135-.077.361-.246.39-.218a6.865,6.865,0,0,1,.559.687Z" transform="translate(62.709 11.144)"/><path class="a" d="M364.25-703.382l-1.031-.255c.6-.751.662.182.982.311Z" transform="translate(15.661 4.957)"/><path class="a" d="M1145.882-618.4l-.111.339c-.121-.049-.279-.068-.349-.156-.04-.051.061-.214.1-.325Z" transform="translate(81.149 12.106)"/><path class="a" d="M1040.655-612.815c.381-.5.789-.479,1.217-.061Z" transform="translate(72.378 12.554)"/><path class="a" d="M723.952-677.464l-1.007-.32c.579-.773.713.122,1.045.276Z" transform="translate(45.778 7.12)"/><path class="a" d="M1558.6-660.567l-1.086,2.094a2.341,2.341,0,0,1-2.208-2.124l.054-.054Z" transform="translate(115.467 8.58)"/><path class="a" d="M1555.329-660.578l-.266-.319.32.265Z" transform="translate(115.447 8.559)"/></g></svg>